<?xml version="1.0" encoding="UTF-8" standalone="no"?>
<svg
   viewBox="0 0 793.7007874015749 1122.5196850393702"
   width="793.7007874015749"
   height="1122.5196850393702"
   version="1.1"
   id="svg44"
   sodipodi:docname="main.svg"
   inkscape:version="1.3.2 (091e20e, 2023-11-25)"
   xmlns:inkscape="http://www.inkscape.org/namespaces/inkscape"
   xmlns:sodipodi="http://sodipodi.sourceforge.net/DTD/sodipodi-0.dtd"
   xmlns:xlink="http://www.w3.org/1999/xlink"
   xmlns="http://www.w3.org/2000/svg"
   xmlns:svg="http://www.w3.org/2000/svg">
  <sodipodi:namedview
     id="namedview1"
     pagecolor="#ffffff"
     bordercolor="#000000"
     borderopacity="0.25"
     inkscape:showpageshadow="2"
     inkscape:pageopacity="0.0"
     inkscape:pagecheckerboard="0"
     inkscape:deskcolor="#d1d1d1"
     inkscape:zoom="0.39685817"
     inkscape:cx="259.53857"
     inkscape:cy="613.56933"
     inkscape:window-width="1440"
     inkscape:window-height="900"
     inkscape:window-x="0"
     inkscape:window-y="0"
     inkscape:window-maximized="0"
     inkscape:current-layer="layer5" />
  <desc
     id="desc1">通用纯xiao.dxf - scale = 1.166667, origin = (-18.000000, -40.000000), method = auto</desc>
  <defs
     id="defs34">
    <marker
       id="DistanceX"
       orient="auto"
       refX="0.0"
       refY="0.0"
       style="overflow:visible">
      <path
         d="M 3,-3 L -3,3 M 0,-5 L  0,5"
         style="stroke:#000000; stroke-width:0.5"
         id="path1" />
    </marker>
    <pattern
       id="Hatch"
       patternUnits="userSpaceOnUse"
       width="8"
       height="8"
       x="0"
       y="0">
      <path
         d="M8 4 l-4,4"
         stroke="#000000"
         stroke-width="0.25"
         linecap="square"
         id="path2" />
      <path
         d="M6 2 l-4,4"
         stroke="#000000"
         stroke-width="0.25"
         linecap="square"
         id="path3" />
      <path
         d="M4 0 l-4,4"
         stroke="#000000"
         stroke-width="0.25"
         linecap="square"
         id="path4" />
    </pattern>
    <symbol
       id="*Model_Space" />
    <symbol
       id="*Paper_Space" />
    <symbol
       id="*Paper_Space0" />
    <symbol
       id="*U1">
      <path
         style="fill:none;stroke:#00FF00;stroke-dasharray:52.9134,13.2283,"
         d="M 79.3701 946.142 L 189.606 1137.08"
         id="path5" />
    </symbol>
    <symbol
       id="*U2">
      <use
         xlink:href="#%2AU1"
         style="stroke-width:0.500px"
         transform="matrix(0.866025 0.5 -0.5 0.866025 657.983 -436.548)"
         id="use5" />
      <use
         xlink:href="#%2AU1"
         style="stroke-width:0.500px"
         transform="matrix(0.866025 0.5 -0.5 0.866025 681.85 -422.769)"
         id="use6" />
      <use
         xlink:href="#%2AU1"
         style="stroke-width:0.500px"
         transform="matrix(0.866025 0.5 -0.5 0.866025 705.717 -408.989)"
         id="use7" />
      <use
         xlink:href="#%2AU1"
         style="stroke-width:0.500px"
         transform="matrix(0.866025 0.5 -0.5 0.866025 729.584 -395.209)"
         id="use8" />
      <use
         xlink:href="#%2AU1"
         style="stroke-width:0.500px"
         transform="matrix(0.866025 0.5 -0.5 0.866025 753.451 -381.43)"
         id="use9" />
      <use
         xlink:href="#%2AU1"
         style="stroke-width:0.500px"
         transform="matrix(0.866025 0.5 -0.5 0.866025 777.317 -367.65)"
         id="use10" />
      <use
         xlink:href="#%2AU1"
         style="stroke-width:0.500px"
         transform="matrix(0.866025 0.5 -0.5 0.866025 801.184 -353.871)"
         id="use11" />
    </symbol>
    <symbol
       id="*U3">
      <path
         style="fill:none;stroke:#00FF00;stroke-dasharray:52.9134,13.2283,"
         d="M 162.047 802.941 L 79.3701 946.142"
         id="path11" />
    </symbol>
    <symbol
       id="*U4">
      <use
         xlink:href="#%2AU3"
         style="stroke-width:0.500px"
         transform="matrix(6.12323e-17 1 -1 6.12323e-17 1199.79 343.15)"
         id="use12" />
      <use
         xlink:href="#%2AU3"
         style="stroke-width:0.500px"
         transform="matrix(6.12323e-17 1 -1 6.12323e-17 1199.79 374.646)"
         id="use13" />
      <use
         xlink:href="#%2AU3"
         style="stroke-width:0.500px"
         transform="matrix(6.12323e-17 1 -1 6.12323e-17 1199.79 406.142)"
         id="use14" />
      <use
         xlink:href="#%2AU3"
         style="stroke-width:0.500px"
         transform="matrix(6.12323e-17 1 -1 6.12323e-17 1199.79 437.638)"
         id="use15" />
      <use
         xlink:href="#%2AU3"
         style="stroke-width:0.500px"
         transform="matrix(6.12323e-17 1 -1 6.12323e-17 1199.79 469.134)"
         id="use16" />
      <use
         xlink:href="#%2AU3"
         style="stroke-width:0.500px"
         transform="matrix(6.12323e-17 1 -1 6.12323e-17 1199.79 500.63)"
         id="use17" />
      <use
         xlink:href="#%2AU3"
         style="stroke-width:0.500px"
         transform="matrix(6.12323e-17 1 -1 6.12323e-17 1199.79 532.126)"
         id="use18" />
      <use
         xlink:href="#%2AU3"
         style="stroke-width:0.500px"
         transform="matrix(6.12323e-17 1 -1 6.12323e-17 1199.79 563.622)"
         id="use19" />
    </symbol>
    <symbol
       id="*U5">
      <path
         style="fill:none;stroke:#00FF00;stroke-dasharray:52.9134,13.2283,"
         d="M 79.3701 946.142 L 162.047 1089.34"
         id="path19" />
    </symbol>
    <symbol
       id="*U6">
      <use
         xlink:href="#%2AU5"
         style="stroke-width:0.500px"
         transform="matrix(6.12323e-17 1 -1 6.12323e-17 1486.19 343.15)"
         id="use20" />
      <use
         xlink:href="#%2AU5"
         style="stroke-width:0.500px"
         transform="matrix(6.12323e-17 1 -1 6.12323e-17 1486.19 374.646)"
         id="use21" />
      <use
         xlink:href="#%2AU5"
         style="stroke-width:0.500px"
         transform="matrix(6.12323e-17 1 -1 6.12323e-17 1486.19 406.142)"
         id="use22" />
      <use
         xlink:href="#%2AU5"
         style="stroke-width:0.500px"
         transform="matrix(6.12323e-17 1 -1 6.12323e-17 1486.19 437.638)"
         id="use23" />
      <use
         xlink:href="#%2AU5"
         style="stroke-width:0.500px"
         transform="matrix(6.12323e-17 1 -1 6.12323e-17 1486.19 469.134)"
         id="use24" />
      <use
         xlink:href="#%2AU5"
         style="stroke-width:0.500px"
         transform="matrix(6.12323e-17 1 -1 6.12323e-17 1486.19 500.63)"
         id="use25" />
      <use
         xlink:href="#%2AU5"
         style="stroke-width:0.500px"
         transform="matrix(6.12323e-17 1 -1 6.12323e-17 1486.19 532.126)"
         id="use26" />
      <use
         xlink:href="#%2AU5"
         style="stroke-width:0.500px"
         transform="matrix(6.12323e-17 1 -1 6.12323e-17 1486.19 563.622)"
         id="use27" />
    </symbol>
    <symbol
       id="*U7">
      <path
         style="fill:none;stroke:#00FF00;stroke-dasharray:52.9134,13.2283,"
         d="M 189.606 755.207 L 79.3701 946.142"
         id="path27" />
    </symbol>
    <symbol
       id="*U8">
      <use
         xlink:href="#%2AU7"
         style="stroke-width:0.500px"
         transform="matrix(-0.866025 0.5 -0.5 -0.866025 1081.86 1202.22)"
         id="use28" />
      <use
         xlink:href="#%2AU7"
         style="stroke-width:0.500px"
         transform="matrix(-0.866025 0.5 -0.5 -0.866025 1057.99 1216)"
         id="use29" />
      <use
         xlink:href="#%2AU7"
         style="stroke-width:0.500px"
         transform="matrix(-0.866025 0.5 -0.5 -0.866025 1034.13 1229.78)"
         id="use30" />
      <use
         xlink:href="#%2AU7"
         style="stroke-width:0.500px"
         transform="matrix(-0.866025 0.5 -0.5 -0.866025 1010.26 1243.56)"
         id="use31" />
      <use
         xlink:href="#%2AU7"
         style="stroke-width:0.500px"
         transform="matrix(-0.866025 0.5 -0.5 -0.866025 986.391 1257.34)"
         id="use32" />
      <use
         xlink:href="#%2AU7"
         style="stroke-width:0.500px"
         transform="matrix(-0.866025 0.5 -0.5 -0.866025 962.524 1271.12)"
         id="use33" />
      <use
         xlink:href="#%2AU7"
         style="stroke-width:0.500px"
         transform="matrix(-0.866025 0.5 -0.5 -0.866025 938.657 1284.89)"
         id="use34" />
    </symbol>
  </defs>
  <g
     inkscape:groupmode="layer"
     id="layer5"
     inkscape:label="main">
    <g
       inkscape:groupmode="layer"
       id="layer1"
       inkscape:label="桨">
      <path
         d="m 471.56605,813.96748 -19.59755,-2.19107 a 19.84252,19.84252 0 0 0 -4.68504,0.0328 l -17.3622,2.18744 -17.22495,2.17013 a 22.047244,22.047244 0 0 0 -31.69237,5.7e-4 22.047244,22.047244 0 0 1 5.4e-4,-5.7e-4 l -17.22495,-2.17013 -17.36221,-2.18744 a 19.842525,19.842525 0 0 0 -4.68674,-0.0326 l -19.59585,2.19088 a 17.637795,17.637795 0 0 0 -0.24497,0.0291 l -17.3622,2.18743 a 15.433071,15.433071 0 0 0 0,30.62405 l 17.3622,2.18743 a 17.637795,17.637795 0 0 0 0.24497,0.0291 l 19.59755,2.19108 a 19.84252,19.84252 0 0 0 4.68504,-0.0328 l 17.36221,-2.18743 17.22495,-2.17014 a 22.047244,22.047244 0 0 1 -5.4e-4,-5.6e-4 22.047244,22.047244 0 0 0 31.69237,5.6e-4 l 17.22495,2.17014 17.3622,2.18743 a 19.84252,19.84252 0 0 0 4.68504,0.0328 l 19.59755,-2.19108 a 17.637795,17.637795 0 0 0 0.24497,-0.0291 l 17.36221,-2.18743 a 15.433071,15.433071 0 0 0 0,-30.62405 l -17.36221,-2.18743 a 17.637795,17.637795 0 0 0 -0.24497,-0.0291 z"
         style="display:inline;fill:none;stroke:#333333"
         id="path34"
         inkscape:label="桨叶" />
      <path
         d="m 465.5869,791.81102 -11.45609,6.61418 a 66.141732,66.141732 0 0 0 -114.56084,0 l -11.45608,-6.61418 a 79.370079,79.370079 0 0 1 137.47301,0 z"
         style="display:inline;fill:none;stroke:#333333"
         id="path35"
         inkscape:label="上盖" />
      <path
         d="m 328.11389,871.1811 11.45608,-6.61417 a 66.141732,66.141732 0 0 0 114.56084,0 l 11.45609,6.61417 a 79.370079,79.370079 0 0 1 -137.47301,0 z"
         style="display:inline;fill:none;stroke:#333333"
         id="path36"
         inkscape:label="下盖" />
    </g>
    <g
       inkscape:groupmode="layer"
       id="layer2"
       inkscape:label="翅">
      <g
         inkscape:groupmode="layer"
         id="layer3"
         inkscape:label="左翅">
        <path
           d="M 294.62958,698.27931 79.370079,571.90656 v -84.34751 z"
           style="display:inline;fill:none;stroke:#333333"
           id="path44"
           inkscape:label="上翅" />
        <path
           d="M 132.28346,725.66929 95.118856,660.63123 330.70866,725.66929 Z"
           style="display:inline;fill:none;stroke:#333333"
           id="path39"
           inkscape:label="中翅" />
        <path
           d="m 205.18637,777.02551 51.21061,12.60318 85.08381,-49.12316 z"
           style="display:inline;fill:none;stroke:#333333"
           id="path38"
           inkscape:label="下翅" />
      </g>
      <g
         inkscape:groupmode="layer"
         id="layer4"
         inkscape:label="右翅">
        <path
           d="m 714.33071,487.55905 v 84.58261 l -215.2595,126.13765 z"
           style="display:inline;fill:none;stroke:#333333"
           id="path41"
           inkscape:label="上翅" />
        <path
           d="m 661.41732,725.66929 37.21505,-64.80363 -235.64024,64.80363 z"
           style="display:inline;fill:none;stroke:#333333"
           id="path40"
           inkscape:label="中翅" />
        <path
           d="M 588.51442,777.02551 537.30381,789.62869 452.22,740.50553 Z"
           style="display:inline;fill:none;stroke:#333333"
           id="path37"
           inkscape:label="下翅" />
      </g>
    </g>
    <g
       inkscape:groupmode="layer"
       id="layer6"
       inkscape:label="LIF">
      <path
         d="m 253.64934,485.51181 23.86684,13.77953 v 125.98425 l 119.33421,68.89764 V 568.18898 l 95.46737,-55.11811 v 31.49606 l -71.60052,41.33858 v 31.49606 l 71.60052,-41.33858 v 31.49606 l -71.60052,41.33859 v 62.99212 l -23.86685,13.77953 -143.20105,-82.67716 z"
         style="display:inline;fill:none;stroke:#333333;stroke-linecap:round"
         id="path42"
         inkscape:label="L_F" />
      <path
         d="m 253.64934,422.51968 143.20105,82.67717 143.20105,-82.67717 v 220.47245 l -95.46736,55.11811 V 666.61417 L 516.1846,625.27559 V 467.79528 l -119.33421,68.89763 -47.73368,-27.55905 v 94.48819 l 23.86684,13.77952 v 31.49607 l -71.60052,-41.33859 v -31.49606 l 23.86684,13.77953 v -94.48819 l -71.60053,-41.33858 z"
         style="display:inline;fill:none;stroke:#333333;stroke-linecap:round"
         id="path43"
         inkscape:label="I" />
    </g>
  </g>
</svg>
